<svg xmlns="http://www.w3.org/2000/svg" version="1.1" xmlns:xlink="http://www.w3.org/1999/xlink" xmlns:svgjs="http://svgjs.dev/svgjs" width="1000" height="370" viewBox="0 0 1000 370"><g transform="matrix(1,0,0,1,-0.40170976941300296,-0.14658591648381503)"><svg viewBox="0 0 354 131" data-background-color="#046380" preserveAspectRatio="xMidYMid meet" height="370" width="1000" xmlns="http://www.w3.org/2000/svg" xmlns:xlink="http://www.w3.org/1999/xlink"><g id="tight-bounds" transform="matrix(1,0,0,1,0.14220525837220066,0.05190066200174215)"><svg viewBox="0 0 353.7155894832556 130.8962" height="130.8962" width="353.7155894832556"><g><svg viewBox="0 0 353.7155894832556 130.8962" height="130.8962" width="353.7155894832556"><g><svg viewBox="0 0 353.7155894832556 130.8962" height="130.8962" width="353.7155894832556"><g><svg viewBox="0 0 353.7155894832556 130.8962" height="130.8962" width="353.7155894832556"><g><svg viewBox="0 0 353.7155894832556 130.8962" height="130.8962" width="353.7155894832556"><g><svg><g></g><g></g></svg></g><g><svg><g><svg></svg></g><g></g></svg></g><g id="text-0"><svg viewBox="0 0 353.7155894832556 130.8962" height="130.8962" width="353.7155894832556"><g transform="matrix(1,0,0,1,0,0)"><svg width="214.728825" viewBox="0.34375 -40 66.35624694824219 40.45000076293945" height="130.8962" data-palette-color="#ffffff"><path d="M28.15-1.2L17.15-34.8 6.2-1.2 6.2-1.25Q5.9-0.5 5.38-0.03 4.85 0.45 4.1 0.45L4.1 0.45Q3.7 0.45 3.33 0.38 2.95 0.3 2.55 0.2L2.55 0.2 2.6 0.2Q-0.25-0.7 0.5-3L0.5-3 11.9-37.65Q12.15-38.45 12.78-39 13.4-39.55 14.25-39.65L14.25-39.65Q15.1-39.8 15.9-39.88 16.7-39.95 17.15-39.95L17.15-39.95Q17.6-39.95 18.4-39.88 19.2-39.8 20.05-39.7L20.05-39.7Q20.75-39.6 21.43-38.95 22.1-38.3 22.45-37.65L22.45-37.65Q25.25-29.05 28.13-20.33 31-11.6 33.8-3L33.8-3Q34.5-0.7 31.7 0.2L31.7 0.2Q31.3 0.3 30.98 0.38 30.65 0.45 30.25 0.45L30.25 0.45Q29.55 0.45 28.98-0.03 28.4-0.5 28.15-1.25L28.15-1.25 28.15-1.2ZM20.9-12L20.9-12Q20.9-10.4 19.78-9.28 18.65-8.15 17.05-8.15L17.05-8.15Q15.45-8.15 14.35-9.28 13.25-10.4 13.25-12L13.25-12Q13.25-13.6 14.35-14.73 15.45-15.85 17.05-15.85L17.05-15.85Q18.65-15.85 19.78-14.73 20.9-13.6 20.9-12ZM44.2-21.2L59.45-39.1Q60.2-40 61.15-40L61.15-40Q62.2-40 63.3-39.05L63.3-39.05Q63.85-38.5 64.22-37.95 64.6-37.4 64.6-36.85L64.6-36.85Q64.6-35.95 63.95-35.3L63.95-35.3 57.25-27.5 44.2-12.15 44.2-2.1Q44.2 0.3 41.2 0.3L41.2 0.3Q38.25 0.3 38.25-2.1L38.25-2.1 38.25-37.55Q38.25-39.95 41.2-39.95L41.2-39.95Q44.2-39.95 44.2-37.55L44.2-37.55 44.2-21.2ZM61.85-1.5L52.35-15.35Q51.85-16.05 51.85-17.05L51.85-17.05Q51.85-18.55 53.1-19.45L53.1-19.45 53.05-19.45Q54.05-20.15 55.05-20.15L55.05-20.15Q56-20.15 56.65-19.05L56.65-19.05 66.3-4.95 66.25-5Q66.7-4.3 66.7-3.5L66.7-3.5Q66.7-2.2 65.4-1.2L65.4-1.2 65.45-1.2Q64.9-0.85 64.4-0.65 63.9-0.45 63.5-0.45L63.5-0.45Q63.1-0.45 62.67-0.75 62.25-1.05 61.85-1.5L61.85-1.5Z" opacity="1" transform="matrix(1,0,0,1,0,0)" fill="#ffffff" class="undefined-text-0" data-fill-palette-color="primary"></path></svg></g><g><svg xmlns="http://www.w3.org/2000/svg" xmlns:xlink="http://www.w3.org/1999/xlink" version="1.1" baseProfile="tiny" x="230.180725" y="0" viewBox="3.284074544906616 0.4995431900024414 93.43193054199219 98.99945831298828" overflow="scroll" xml:space="preserve" height="130.8962" width="123.53486448325557" class="icon-s-0" data-fill-palette-color="accent" id="s-0"><path d="M70.536 58.215c-4.317 0-7.816 3.499-7.816 7.813 0 4.316 3.499 7.812 7.816 7.812 4.313 0 7.813-3.495 7.813-7.812C78.35 61.714 74.85 58.215 70.536 58.215zM70.536 70.439c-2.436 0-4.411-1.977-4.411-4.412 0-2.437 1.976-4.406 4.411-4.406 2.432 0 4.407 1.97 4.407 4.406C74.943 68.463 72.968 70.439 70.536 70.439zM70.536 39.848c-14.461 0-26.181 11.723-26.181 26.18 0 14.461 11.72 26.179 26.181 26.179 14.458 0 26.18-11.718 26.18-26.179C96.716 51.57 84.994 39.848 70.536 39.848zM45.381 70.357l15.15-2.608c0.146 0.831 0.385 1.626 0.718 2.371l-14.071 6.2C46.349 74.438 45.737 72.443 45.381 70.357zM70.536 91.552c-7.943 0-15.054-3.646-19.735-9.355l11.886-9.736c1.861 2.269 4.688 3.719 7.85 3.719V91.552zM70.536 75.581c-5.279 0-9.559-4.273-9.559-9.554 0-5.275 4.279-9.554 9.559-9.554 5.276 0 9.555 4.278 9.555 9.554C80.091 71.308 75.813 75.581 70.536 75.581zM58.719 89.393l-37.586 8.979v-69.71l6.649 7.341c0.095 0.104 0.229 0.162 0.368 0.162 0.022 0 0.042-0.001 0.064-0.004l48.322-6.24v10.621c0.336 0.077 0.669 0.162 0.996 0.253V29.791l8.606-1.111c0.199-0.024 0.362-0.167 0.418-0.36 0.052-0.193-0.016-0.4-0.171-0.524l-8.816-6.951 6.102-15.282c0.05-0.135 0.042-0.286-0.022-0.414-0.065-0.127-0.185-0.22-0.328-0.255L66.4 0.846c-0.214-0.053-0.439 0.047-0.549 0.242l-6.57 11.826-1.86-11.992c-0.037-0.263-0.28-0.446-0.541-0.42L6.461 5.805C6.312 5.82 6.179 5.902 6.096 6.028 6.014 6.152 5.994 6.308 6.04 6.451l1.011 3.176-3.08-1.259c-0.183-0.074-0.39-0.035-0.532 0.1C3.296 8.604 3.247 8.809 3.313 8.994l4.383 12.373v68.145c0 0.158 0.074 0.303 0.197 0.396l12.337 9.376c0.027 0.042 0.06 0.075 0.098 0.108 0.088 0.067 0.198 0.107 0.31 0.107 0.038 0 0.076-0.005 0.114-0.015l39.415-9.416C59.676 89.862 59.193 89.636 58.719 89.393zM66.538 1.901l15.99 3.826L76.75 20.209l-17.038-6.014L66.538 1.901zM59.486 15.172l15.002 5.293-15.002 1.87V15.172zM76.44 21.224l8.399 6.62L28.344 35.14l-6.088-6.722 36.794-5.025L76.44 21.224zM4.623 9.71l10.443 4.271 4.66 13.087L8.602 20.936 4.623 9.71zM20.138 97.967L8.693 89.268V22.124l11.445 6.306V97.967zM17.928 19.048l-2-5.609c-0.047-0.135-0.15-0.24-0.28-0.293l-7.397-3.028L7.172 6.73l49.341-5.187 1.905 12.296L17.928 19.048zM17.246 39.61c0.234 0.143 0.307 0.451 0.164 0.685-0.094 0.154-0.256 0.238-0.425 0.238-0.088 0-0.177-0.025-0.259-0.075l-6.253-3.82c-0.234-0.144-0.31-0.448-0.167-0.682 0.144-0.237 0.451-0.31 0.685-0.167L17.246 39.61zM10.309 31.183c0.145-0.232 0.453-0.302 0.686-0.157l6.786 4.218c0.233 0.145 0.303 0.453 0.158 0.686-0.094 0.152-0.255 0.235-0.422 0.235-0.089 0-0.18-0.023-0.261-0.074l-6.786-4.222C10.236 31.724 10.164 31.418 10.309 31.183zM28.207 52.795l22.941-4.362c-0.354 0.392-0.697 0.797-1.029 1.209l-21.321 4.056v5.849C35 59.512 39.875 62.71 44.362 66.56c0.123 6.265 2.449 11.992 6.235 16.437l-22.206 4.22c-0.03 0.006-0.063 0.009-0.093 0.009-0.116 0-0.227-0.042-0.316-0.115-0.116-0.095-0.183-0.236-0.183-0.383V53.284C27.801 53.045 27.972 52.843 28.207 52.795zM10.3 81.257c0.137-0.242 0.439-0.324 0.678-0.186l6.254 3.565c0.239 0.133 0.321 0.438 0.186 0.68-0.091 0.158-0.259 0.249-0.433 0.249-0.083 0-0.167-0.023-0.247-0.063l-6.252-3.566C10.248 81.797 10.163 81.491 10.3 81.257zM9.925 51.981l7.333 4.463c0.08 0.052 0.169 0.077 0.258 0.077 0.083 0 0.169-0.021 0.244-0.067 0.158-0.088 0.255-0.252 0.255-0.432V44.974c0-0.175-0.093-0.34-0.245-0.429l-7.332-4.321c-0.154-0.09-0.344-0.092-0.5-0.004-0.156 0.09-0.251 0.254-0.251 0.433v10.908C9.687 51.732 9.777 51.892 9.925 51.981zM10.683 41.522l6.336 3.735v9.879l-6.336-3.856V41.522zM17.404 90.379c-0.096 0.15-0.254 0.229-0.419 0.229-0.092 0-0.186-0.027-0.268-0.078l-6.255-4.042c-0.23-0.149-0.297-0.459-0.148-0.686 0.149-0.233 0.459-0.298 0.688-0.151l6.254 4.039C17.488 89.843 17.553 90.152 17.404 90.379z" fill="#ffffff" data-fill-palette-color="accent"></path></svg></g></svg></g></svg></g></svg></g></svg></g></svg></g><defs></defs></svg><rect width="353.7155894832556" height="130.8962" fill="none" stroke="none" visibility="hidden"></rect></g></svg></g></svg>