<svg width="964" height="849" viewBox="0 0 964 849" fill="none" xmlns="http://www.w3.org/2000/svg">
<path d="M727.45 8.81536L723.042 0H241.504L0.183228 424.239L240.402 848.478H721.94L963.261 424.239L727.45 8.81536ZM297.701 152.065L39.8523 398.895L244.809 37.4653L297.701 152.065ZM709.819 36.3633L780.342 429.749L337.371 157.574L709.819 36.3633ZM321.944 174.103L773.731 451.787L321.944 708.534V174.103ZM779.24 473.825L699.902 813.216L340.676 723.961L779.24 473.825ZM299.905 699.719L39.8523 429.749L299.905 179.613V699.719ZM296.6 728.369L245.911 813.216L57.483 480.437L296.6 728.369ZM316.434 739.388L662.437 826.439H263.542L316.434 739.388ZM804.584 460.602L932.407 433.054L725.246 798.891L804.584 460.602ZM930.203 412.118L804.584 439.666L739.571 74.9305L930.203 412.118ZM316.434 141.046L261.338 22.0384H682.271L316.434 141.046Z" fill="white"/>
</svg>
